<svg xmlns="http://www.w3.org/2000/svg" viewBox="0 0 24 24" width="512" height="512">
  <g class="nc-icon-wrapper" fill="#211b63">
    <path d="M12 .296c-6.63 0-12 5.372-12 12 0 5.302 3.438 9.8 8.205 11.387.6.113.82-.261.82-.577v-2.17c-3.338.726-4.042-1.415-4.042-1.415-.546-1.387-1.332-1.757-1.332-1.757-1.087-.744.084-.729.084-.729 1.205.084 1.838 1.237 1.838 1.237 1.07 1.834 2.809 1.304 3.495.996.108-.776.418-1.305.762-1.606-2.665-.305-5.466-1.334-5.466-5.93 0-1.31.467-2.382 1.235-3.22-.124-.305-.535-1.528.117-3.182 0 0 1.008-.322 3.3 1.23a11.52 11.52 0 013.003-.404c1.02.004 2.047.138 3.003.404 2.29-1.552 3.297-1.23 3.297-1.23.653 1.654.242 2.877.118 3.182.77.838 1.233 1.91 1.233 3.22 0 4.61-2.805 5.624-5.475 5.921.43.37.814 1.104.814 2.223v3.293c0 .319.218.694.825.576C20.565 22.092 24 17.593 24 12.296c0-6.628-5.373-12-12-12z"/>
  </g>
</svg>
